<svg
  width="20"
  height="20"
  viewBox="0 0 20 20"
  fill="currentColor"
  xmlns="http://www.w3.org/2000/svg"
>
  <path
    d="M10 9.25C10.4142 9.25002 10.75 9.5858 10.75 10V13.333C10.75 13.7472 10.4142 14.083 10 14.083C9.58579 14.083 9.25 13.7472 9.25 13.333V10C9.25 9.58579 9.58579 9.25 10 9.25Z"
  />
  <path
    d="M10 5.83301C10.5293 5.83303 10.958 6.26273 10.958 6.79199C10.9578 7.3211 10.5291 7.74998 10 7.75C9.47084 7.75 9.04217 7.32111 9.04199 6.79199C9.04199 6.26272 9.47073 5.83301 10 5.83301Z"
  />
  <path
    fill-rule="evenodd"
    clip-rule="evenodd"
    d="M10 2.08496C14.3713 2.08496 17.915 5.62867 17.915 10C17.915 14.3713 14.3713 17.915 10 17.915C5.62867 17.915 2.08496 14.3713 2.08496 10C2.08496 5.62867 5.62867 2.08496 10 2.08496ZM10 3.41504C6.3632 3.41504 3.41504 6.3632 3.41504 10C3.41504 13.6368 6.3632 16.585 10 16.585C13.6368 16.585 16.585 13.6368 16.585 10C16.585 6.3632 13.6368 3.41504 10 3.41504Z"
  />
</svg>
