<svg xmlns="http://www.w3.org/2000/svg" width="16" height="16" viewBox="0 0 16 16" fill="currentColor"><path d="M4.91463 13.3C4.2134 13.3 3.80005 12.874 3.80005 12.1394V3.8533C3.80005 3.12606 4.2134 2.70001 4.91463 2.70001H8.43555C10.4359 2.70001 11.6908 3.72108 11.6908 5.3445C11.6908 6.50515 10.8197 7.47479 9.69038 7.64375V7.70252C11.1372 7.8127 12.2 8.86315 12.2 10.2662C12.2 12.1321 10.7902 13.3 8.51674 13.3H4.91463ZM6.02923 7.1075H7.63098C8.81939 7.1075 9.49847 6.58595 9.49847 5.68976C9.49847 4.83764 8.90058 4.35282 7.8598 4.35282H6.02923V7.1075ZM6.02923 11.6472H7.94838C9.23274 11.6472 9.92662 11.1036 9.92662 10.0899C9.92662 9.09822 9.2106 8.56932 7.89671 8.56932H6.02923V11.6472Z"/></svg>
